<svg width="44" height="44" viewBox="0 0 44 44" fill="none" xmlns="http://www.w3.org/2000/svg">
<g filter="url(#filter0_b_80_588)">
<rect x="0.559082" y="0.0605469" width="43" height="43" rx="21.5" fill="white" fill-opacity="0.1"/>
<g clip-path="url(#clip0_80_588)">
<path d="M34.1006 14.1254C33.1988 14.5249 32.2423 14.7871 31.2629 14.9033C32.2831 14.2919 33.0664 13.3236 33.4352 12.1699C32.4654 12.7454 31.4043 13.1509 30.2979 13.3688C29.3966 12.4087 28.1126 11.8086 26.6915 11.8086C23.9629 11.8086 21.7506 14.0208 21.7506 16.7492C21.7506 17.1365 21.7944 17.5135 21.8786 17.8752C17.7724 17.6691 14.1319 15.7022 11.695 12.713C11.2698 13.4427 11.0261 14.2915 11.0261 15.1968C11.0261 16.911 11.8985 18.4232 13.2241 19.3092C12.4395 19.2846 11.6722 19.0727 10.9862 18.6912C10.9859 18.7119 10.9859 18.7326 10.9859 18.7533C10.9859 21.1472 12.6889 23.1441 14.9491 23.598C14.2215 23.7958 13.4584 23.8248 12.7179 23.6826C13.3466 25.6455 15.1713 27.0739 17.3332 27.1139C15.6423 28.4389 13.5119 29.2288 11.1972 29.2288C10.7983 29.2288 10.4051 29.2054 10.0186 29.1598C12.205 30.5616 14.802 31.3796 17.5922 31.3796C26.68 31.3796 31.6495 23.851 31.6495 17.3222C31.6495 17.1079 31.6448 16.8948 31.6352 16.6829C32.6025 15.9837 33.4373 15.1176 34.1006 14.1254Z" fill="white"/>
</g>
</g>
<defs>
<filter id="filter0_b_80_588" x="-49.4409" y="-49.9395" width="143" height="143" filterUnits="userSpaceOnUse" color-interpolation-filters="sRGB">
<feFlood flood-opacity="0" result="BackgroundImageFix"/>
<feGaussianBlur in="BackgroundImageFix" stdDeviation="25"/>
<feComposite in2="SourceAlpha" operator="in" result="effect1_backgroundBlur_80_588"/>
<feBlend mode="normal" in="SourceGraphic" in2="effect1_backgroundBlur_80_588" result="shape"/>
</filter>
<clipPath id="clip0_80_588">
<rect width="24.082" height="19.6607" fill="white" transform="translate(10.0181 11.7305)"/>
</clipPath>
</defs>
</svg>
