<svg width="45" height="43" viewBox="0 0 45 43" fill="none" xmlns="http://www.w3.org/2000/svg">
<g filter="url(#filter0_b_80_591)">
<rect x="0.559082" y="0.160156" width="43.4814" height="41.9003" rx="20.9502" fill="white" fill-opacity="0.1"/>
<path d="M23.3166 11.2285C24.4283 11.2315 24.9926 11.2374 25.4798 11.2512L25.6715 11.2582C25.8928 11.2661 26.1112 11.2759 26.3751 11.2878C27.4266 11.3372 28.144 11.5032 28.7735 11.7473C29.4257 11.9983 29.9752 12.3383 30.5246 12.8867C31.0271 13.3807 31.4159 13.9783 31.664 14.6379C31.9081 15.2673 32.0741 15.9848 32.1235 17.0372C32.1354 17.3001 32.1453 17.5185 32.1532 17.7409L32.1591 17.9326C32.1739 18.4188 32.1799 18.983 32.1818 20.0948L32.1828 20.832V22.1265C32.1853 22.8474 32.1777 23.5682 32.1601 24.2888L32.1542 24.4805C32.1463 24.7028 32.1364 24.9212 32.1245 25.1841C32.0751 26.2365 31.9071 26.953 31.664 27.5835C31.4166 28.2434 31.0277 28.8411 30.5246 29.3346C30.0305 29.8369 29.4329 30.2257 28.7735 30.474C28.144 30.7181 27.4266 30.8841 26.3751 30.9335C26.1406 30.9446 25.9061 30.9544 25.6715 30.9632L25.4798 30.9691C24.9926 30.9829 24.4283 30.9898 23.3166 30.9918L22.5794 30.9928H21.2858C20.5647 30.9953 19.8435 30.9877 19.1226 30.9701L18.9309 30.9642C18.6963 30.9553 18.4617 30.9451 18.2273 30.9335C17.1758 30.8841 16.4584 30.7181 15.8279 30.474C15.1684 30.2263 14.5711 29.8374 14.0778 29.3346C13.5748 28.8408 13.1856 28.2432 12.9374 27.5835C12.6933 26.954 12.5272 26.2365 12.4778 25.1841C12.4668 24.9496 12.4569 24.7151 12.4482 24.4805L12.4432 24.2888C12.425 23.5682 12.4168 22.8474 12.4185 22.1265V20.0948C12.4158 19.374 12.423 18.6532 12.4403 17.9326L12.4472 17.7409C12.4551 17.5185 12.465 17.3001 12.4768 17.0372C12.5263 15.9848 12.6923 15.2683 12.9364 14.6379C13.1845 13.9776 13.5745 13.3799 14.0787 12.8867C14.5719 12.3842 15.1689 11.9954 15.8279 11.7473C16.4584 11.5032 17.1748 11.3372 18.2273 11.2878C18.4901 11.2759 18.7095 11.2661 18.9309 11.2582L19.1226 11.2522C19.8432 11.2347 20.564 11.2271 21.2848 11.2295L23.3166 11.2285ZM22.3007 16.1696C20.9902 16.1696 19.7334 16.6902 18.8068 17.6168C17.8802 18.5434 17.3596 19.8002 17.3596 21.1107C17.3596 22.4211 17.8802 23.6779 18.8068 24.6045C19.7334 25.5312 20.9902 26.0517 22.3007 26.0517C23.6111 26.0517 24.8679 25.5312 25.7946 24.6045C26.7212 23.6779 27.2418 22.4211 27.2418 21.1107C27.2418 19.8002 26.7212 18.5434 25.7946 17.6168C24.8679 16.6902 23.6111 16.1696 22.3007 16.1696ZM22.3007 18.146C22.69 18.146 23.0755 18.2226 23.4352 18.3715C23.795 18.5204 24.1218 18.7387 24.3971 19.014C24.6725 19.2892 24.8909 19.616 25.04 19.9757C25.189 20.3353 25.2658 20.7208 25.2658 21.1102C25.2659 21.4995 25.1893 21.885 25.0403 22.2447C24.8914 22.6044 24.6731 22.9313 24.3978 23.2066C24.1226 23.482 23.7958 23.7004 23.4362 23.8494C23.0765 23.9985 22.691 24.0752 22.3017 24.0753C21.5154 24.0753 20.7613 23.763 20.2054 23.207C19.6494 22.651 19.337 21.8969 19.337 21.1107C19.337 20.3244 19.6494 19.5703 20.2054 19.0143C20.7613 18.4584 21.5154 18.146 22.3017 18.146M27.4898 14.6873C27.1622 14.6873 26.848 14.8174 26.6163 15.0491C26.3847 15.2807 26.2545 15.5949 26.2545 15.9225C26.2545 16.2501 26.3847 16.5643 26.6163 16.796C26.848 17.0277 27.1622 17.1578 27.4898 17.1578C27.8174 17.1578 28.1316 17.0277 28.3633 16.796C28.5949 16.5643 28.7251 16.2501 28.7251 15.9225C28.7251 15.5949 28.5949 15.2807 28.3633 15.0491C28.1316 14.8174 27.8174 14.6873 27.4898 14.6873Z" fill="white"/>
</g>
<defs>
<filter id="filter0_b_80_591" x="-49.4409" y="-49.8398" width="143.481" height="141.9" filterUnits="userSpaceOnUse" color-interpolation-filters="sRGB">
<feFlood flood-opacity="0" result="BackgroundImageFix"/>
<feGaussianBlur in="BackgroundImageFix" stdDeviation="25"/>
<feComposite in2="SourceAlpha" operator="in" result="effect1_backgroundBlur_80_591"/>
<feBlend mode="normal" in="SourceGraphic" in2="effect1_backgroundBlur_80_591" result="shape"/>
</filter>
</defs>
</svg>
