<svg width="20" height="20" viewBox="0 0 20 20" fill="none" xmlns="http://www.w3.org/2000/svg">
<path d="M15.6249 6.87535V15.0003C15.6249 15.1661 15.559 15.3251 15.4418 15.4423C15.3246 15.5595 15.1656 15.6253 14.9999 15.6253H6.87486C6.7091 15.6253 6.55013 15.5595 6.43292 15.4423C6.31571 15.3251 6.24986 15.1661 6.24986 15.0003C6.24986 14.8346 6.31571 14.6756 6.43292 14.5584C6.55013 14.4412 6.7091 14.3753 6.87486 14.3753H13.4913L4.55767 5.44254C4.4404 5.32526 4.37451 5.1662 4.37451 5.00035C4.37451 4.8345 4.4404 4.67544 4.55767 4.55816C4.67495 4.44088 4.83401 4.375 4.99986 4.375C5.16571 4.375 5.32477 4.44088 5.44205 4.55816L14.3749 13.4918V6.87535C14.3749 6.70959 14.4407 6.55062 14.5579 6.43341C14.6751 6.3162 14.8341 6.25035 14.9999 6.25035C15.1656 6.25035 15.3246 6.3162 15.4418 6.43341C15.559 6.55062 15.6249 6.70959 15.6249 6.87535Z" fill="#343330"/>
</svg>
