<svg width="20" height="20" viewBox="0 0 20 20" fill="none" xmlns="http://www.w3.org/2000/svg">
<path d="M17.5383 10.6626L11.9133 16.2876C11.7372 16.4637 11.4983 16.5626 11.2492 16.5626C11.0001 16.5626 10.7613 16.4637 10.5852 16.2876C10.409 16.1114 10.3101 15.8726 10.3101 15.6235C10.3101 15.3744 10.409 15.1356 10.5852 14.9594L14.6094 10.9368H3.125C2.87636 10.9368 2.6379 10.838 2.46209 10.6622C2.28627 10.4864 2.1875 10.2479 2.1875 9.99928C2.1875 9.75064 2.28627 9.51218 2.46209 9.33637C2.6379 9.16055 2.87636 9.06178 3.125 9.06178H14.6094L10.5867 5.03678C10.4106 4.86066 10.3117 4.62179 10.3117 4.37272C10.3117 4.12365 10.4106 3.88478 10.5867 3.70866C10.7628 3.53254 11.0017 3.43359 11.2508 3.43359C11.4999 3.43359 11.7387 3.53254 11.9148 3.70866L17.5398 9.33366C17.6273 9.42087 17.6966 9.5245 17.7438 9.63858C17.7911 9.75266 17.8153 9.87495 17.8152 9.99844C17.815 10.1219 17.7905 10.2442 17.743 10.3581C17.6955 10.4721 17.6259 10.5756 17.5383 10.6626Z" fill="#1B1B1B"/>
</svg>
