<svg width="45" height="45" viewBox="0 0 45 45" fill="none" xmlns="http://www.w3.org/2000/svg">
<g filter="url(#filter0_b_80_600)">
<rect x="0.940918" y="0.25" width="43.7855" height="43.81" rx="21.8928" fill="white" fill-opacity="0.1"/>
<path d="M30.6266 29.8722H27.3467V24.7864C27.3467 23.5737 27.3248 22.0125 25.6408 22.0125C23.9326 22.0125 23.6712 23.3338 23.6712 24.6981V29.8719H20.3913V19.4134H23.54V20.8427H23.5841C23.8992 20.3092 24.3545 19.8703 24.9016 19.5728C25.4487 19.2753 26.067 19.1303 26.6907 19.1533C30.015 19.1533 30.6279 21.3183 30.6279 24.1349L30.6266 29.8722ZM16.6905 17.9838C16.3141 17.9839 15.9461 17.8734 15.633 17.6664C15.32 17.4593 15.076 17.1651 14.9319 16.8207C14.7878 16.4764 14.75 16.0974 14.8234 15.7319C14.8967 15.3663 15.078 15.0304 15.3441 14.7668C15.6102 14.5032 15.9493 14.3237 16.3185 14.2509C16.6877 14.1781 17.0704 14.2153 17.4183 14.3579C17.7661 14.5005 18.0634 14.742 18.2726 15.0519C18.4818 15.3618 18.5935 15.7261 18.5936 16.0989C18.5936 16.3463 18.5444 16.5914 18.4488 16.8201C18.3532 17.0488 18.213 17.2565 18.0363 17.4316C17.8596 17.6066 17.6498 17.7455 17.4189 17.8402C17.188 17.935 16.9405 17.9838 16.6905 17.9838ZM18.3305 29.8722H15.0472V19.4134H18.3305V29.8722ZM32.2617 11.1988H13.3991C12.9709 11.194 12.5584 11.3577 12.2521 11.6539C11.9458 11.9501 11.7709 12.3547 11.7656 12.7786V31.5329C11.7707 31.957 11.9455 32.3618 12.2518 32.6583C12.5581 32.9549 12.9707 33.1189 13.3991 33.1144H32.2617C32.6909 33.1197 33.1047 32.9562 33.4122 32.6596C33.7197 32.3631 33.8957 31.9579 33.9016 31.5329V12.7772C33.8955 12.3525 33.7194 11.9475 33.4119 11.6513C33.1044 11.355 32.6907 11.1918 32.2617 11.1974" fill="white"/>
</g>
<defs>
<filter id="filter0_b_80_600" x="-49.0591" y="-49.75" width="143.785" height="143.811" filterUnits="userSpaceOnUse" color-interpolation-filters="sRGB">
<feFlood flood-opacity="0" result="BackgroundImageFix"/>
<feGaussianBlur in="BackgroundImageFix" stdDeviation="25"/>
<feComposite in2="SourceAlpha" operator="in" result="effect1_backgroundBlur_80_600"/>
<feBlend mode="normal" in="SourceGraphic" in2="effect1_backgroundBlur_80_600" result="shape"/>
</filter>
</defs>
</svg>
