<svg width="42" height="43" viewBox="0 0 42 43" fill="none" xmlns="http://www.w3.org/2000/svg">
<g filter="url(#filter0_b_80_594)">
<rect x="0.0405273" y="0.160156" width="41.9003" height="41.9003" rx="20.9502" fill="white" fill-opacity="0.1"/>
<g clip-path="url(#clip0_80_594)">
<path d="M32.3587 15.3834C32.086 14.3598 31.2824 13.5538 30.2619 13.2802C28.4124 12.7831 20.9958 12.7831 20.9958 12.7831C20.9958 12.7831 13.5792 12.7831 11.7296 13.2802C10.7092 13.5538 9.90553 14.3598 9.63281 15.3834C9.13721 17.2386 9.13721 21.1093 9.13721 21.1093C9.13721 21.1093 9.13721 24.98 9.63281 26.8353C9.90553 27.8588 10.7092 28.6648 11.7296 28.9385C13.5792 29.4355 20.9958 29.4355 20.9958 29.4355C20.9958 29.4355 28.4124 29.4355 30.2619 28.9385C31.2824 28.6648 32.086 27.8588 32.3587 26.8353C32.8544 24.98 32.8544 21.1093 32.8544 21.1093C32.8544 21.1093 32.8544 17.2386 32.3587 15.3834Z" fill="white"/>
<path d="M18.5715 24.625L24.7703 21.1109L18.5715 17.5964V24.625Z" fill="#043D39"/>
</g>
</g>
<defs>
<filter id="filter0_b_80_594" x="-49.9595" y="-49.8398" width="141.9" height="141.9" filterUnits="userSpaceOnUse" color-interpolation-filters="sRGB">
<feFlood flood-opacity="0" result="BackgroundImageFix"/>
<feGaussianBlur in="BackgroundImageFix" stdDeviation="25"/>
<feComposite in2="SourceAlpha" operator="in" result="effect1_backgroundBlur_80_594"/>
<feBlend mode="normal" in="SourceGraphic" in2="effect1_backgroundBlur_80_594" result="shape"/>
</filter>
<clipPath id="clip0_80_594">
<rect width="23.7172" height="16.6525" fill="white" transform="translate(9.13208 12.7832)"/>
</clipPath>
</defs>
</svg>
