<svg width="54" height="54" viewBox="0 0 54 54" fill="none" xmlns="http://www.w3.org/2000/svg">
<rect width="54" height="54" rx="27" fill="#2F4D2A" fill-opacity="0.1"/>
<g clip-path="url(#clip0_155_131)">
<path d="M35 25.5C35.3728 25.5 35.7324 25.6389 36.0084 25.8896C36.2844 26.1403 36.4572 26.4848 36.493 26.856L36.5 27V31C36.5 32.1568 36.0545 33.2691 35.256 34.1061C34.4576 34.9431 33.3674 35.4405 32.212 35.495L32 35.5H19C18.7159 35.5002 18.4376 35.4198 18.1975 35.268C17.9573 35.1163 17.7652 34.8995 17.6435 34.6428C17.5218 34.3861 17.4754 34.1002 17.5098 33.8182C17.5443 33.5362 17.6581 33.2698 17.838 33.05L17.939 32.94L20.939 29.94C21.2106 29.6669 21.5768 29.5087 21.9619 29.4983C22.3469 29.4878 22.7212 29.6259 23.0072 29.8839C23.2933 30.1419 23.4691 30.5 23.4982 30.8841C23.5274 31.2682 23.4077 31.6488 23.164 31.947L23.061 32.061L22.621 32.5H32C32.3728 32.5 32.7324 32.3611 33.0084 32.1104C33.2844 31.8597 33.4572 31.5152 33.493 31.144L33.5 31V27C33.5 26.6022 33.658 26.2206 33.9393 25.9393C34.2206 25.658 34.6021 25.5 35 25.5ZM35 18.5C35.284 18.4998 35.5623 18.5802 35.8025 18.732C36.0426 18.8837 36.2347 19.1005 36.3564 19.3572C36.4782 19.6139 36.5245 19.8998 36.4901 20.1818C36.4557 20.4638 36.3419 20.7302 36.162 20.95L36.061 21.06L33.061 24.06C32.7894 24.3331 32.4231 24.4913 32.038 24.5017C31.653 24.5122 31.2787 24.3741 30.9927 24.1161C30.7067 23.8581 30.5309 23.5 30.5017 23.1159C30.4725 22.7318 30.5922 22.3512 30.836 22.053L30.939 21.939L31.379 21.5H22C21.6271 21.5 21.2676 21.6389 20.9915 21.8896C20.7155 22.1403 20.5428 22.4848 20.507 22.856L20.5 23V27C20.4998 27.3852 20.3514 27.7556 20.0856 28.0344C19.8197 28.3132 19.4568 28.479 19.072 28.4975C18.6873 28.516 18.3101 28.3858 18.0188 28.1338C17.7274 27.8818 17.5441 27.5274 17.507 27.144L17.5 27V23C17.5 21.8432 17.9454 20.7309 18.7439 19.8939C19.5424 19.0569 20.6325 18.5595 21.788 18.505L22 18.5H35Z" fill="#1B1B1B" fill-opacity="0.83"/>
</g>
<defs>
<clipPath id="clip0_155_131">
<rect width="24" height="24" fill="white" transform="translate(15 15)"/>
</clipPath>
</defs>
</svg>
