<svg width="54" height="54" viewBox="0 0 54 54" fill="none" xmlns="http://www.w3.org/2000/svg">
<rect width="54" height="54" rx="27" fill="#2F4D2A" fill-opacity="0.1"/>
<path d="M31.8001 18.2984C31.8001 18.0597 31.8949 17.8308 32.0637 17.662C32.2325 17.4933 32.4614 17.3984 32.7001 17.3984H35.7001C35.9388 17.3984 36.1677 17.4933 36.3365 17.662C36.5053 17.8308 36.6001 18.0597 36.6001 18.2984V21.2984C36.6001 21.5371 36.5053 21.7661 36.3365 21.9348C36.1677 22.1036 35.9388 22.1984 35.7001 22.1984C35.4614 22.1984 35.2325 22.1036 35.0637 21.9348C34.8949 21.7661 34.8001 21.5371 34.8001 21.2984V20.4704L29.4361 25.8344C29.2673 26.003 29.0386 26.0976 28.8001 26.0976C28.5616 26.0976 28.3328 26.003 28.1641 25.8344L25.2001 22.8704L20.1361 27.9344C20.0537 28.0229 19.9543 28.0938 19.8439 28.143C19.7335 28.1922 19.6144 28.2186 19.4935 28.2207C19.3727 28.2229 19.2526 28.2007 19.1406 28.1554C19.0285 28.1101 18.9267 28.0427 18.8412 27.9573C18.7558 27.8718 18.6884 27.77 18.6431 27.658C18.5979 27.5459 18.5756 27.4259 18.5778 27.305C18.5799 27.1842 18.6064 27.065 18.6555 26.9546C18.7047 26.8442 18.7757 26.7448 18.8641 26.6624L24.5641 20.9624C24.7328 20.7939 24.9616 20.6992 25.2001 20.6992C25.4386 20.6992 25.6673 20.7939 25.8361 20.9624L28.8001 23.9264L33.5281 19.1984H32.7001C32.4614 19.1984 32.2325 19.1036 32.0637 18.9348C31.8949 18.7661 31.8001 18.5371 31.8001 18.2984ZM19.5001 31.7984C19.7388 31.7984 19.9677 31.8933 20.1365 32.062C20.3053 32.2308 20.4001 32.4597 20.4001 32.6984V35.6984C20.4001 35.9371 20.3053 36.1661 20.1365 36.3348C19.9677 36.5036 19.7388 36.5984 19.5001 36.5984C19.2614 36.5984 19.0325 36.5036 18.8637 36.3348C18.6949 36.1661 18.6001 35.9371 18.6001 35.6984V32.6984C18.6001 32.4597 18.6949 32.2308 18.8637 32.062C19.0325 31.8933 19.2614 31.7984 19.5001 31.7984ZM25.2001 29.0984C25.2001 28.8597 25.1053 28.6308 24.9365 28.462C24.7677 28.2933 24.5388 28.1984 24.3001 28.1984C24.0614 28.1984 23.8325 28.2933 23.6637 28.462C23.4949 28.6308 23.4001 28.8597 23.4001 29.0984V35.6984C23.4001 35.9371 23.4949 36.1661 23.6637 36.3348C23.8325 36.5036 24.0614 36.5984 24.3001 36.5984C24.5388 36.5984 24.7677 36.5036 24.9365 36.3348C25.1053 36.1661 25.2001 35.9371 25.2001 35.6984V29.0984ZM29.1001 30.5984C29.3388 30.5984 29.5677 30.6933 29.7365 30.862C29.9053 31.0308 30.0001 31.2597 30.0001 31.4984V35.6984C30.0001 35.9371 29.9053 36.1661 29.7365 36.3348C29.5677 36.5036 29.3388 36.5984 29.1001 36.5984C28.8614 36.5984 28.6325 36.5036 28.4637 36.3348C28.2949 36.1661 28.2001 35.9371 28.2001 35.6984V31.4984C28.2001 31.2597 28.2949 31.0308 28.4637 30.862C28.6325 30.6933 28.8614 30.5984 29.1001 30.5984ZM34.8001 26.6984C34.8001 26.4597 34.7053 26.2308 34.5365 26.062C34.3677 25.8933 34.1388 25.7984 33.9001 25.7984C33.6614 25.7984 33.4325 25.8933 33.2637 26.062C33.0949 26.2308 33.0001 26.4597 33.0001 26.6984V35.6984C33.0001 35.9371 33.0949 36.1661 33.2637 36.3348C33.4325 36.5036 33.6614 36.5984 33.9001 36.5984C34.1388 36.5984 34.3677 36.5036 34.5365 36.3348C34.7053 36.1661 34.8001 35.9371 34.8001 35.6984V26.6984Z" fill="#1B1B1B"/>
</svg>
