<svg width="54" height="54" viewBox="0 0 54 54" fill="none" xmlns="http://www.w3.org/2000/svg">
<rect width="54" height="54" rx="27" fill="#2F4D2A" fill-opacity="0.1"/>
<path d="M36 25C32.7495 25.1885 29.6233 26.3153 27 28.244C24.3767 26.3153 21.2505 25.1885 18 25V27.96C17.4687 27.9611 16.9595 28.1731 16.5845 28.5494C16.2094 28.9258 15.9992 29.4357 16 29.967V30.971C16 32.08 18 33.179 18 33.179V35.186C20.656 35.3569 23.2174 36.2376 25.417 37.736C25.9725 38.1212 26.5014 38.5435 27 39C27.4986 38.5435 28.0275 38.1212 28.583 37.736C30.7826 36.2376 33.344 35.3569 36 35.186V32.978C36.5313 32.9769 37.0405 32.7649 37.4155 32.3886C37.7906 32.0122 38.0008 31.5023 38 30.971V29.967C38.0008 29.4357 37.7906 28.9258 37.4155 28.5494C37.0405 28.1731 36.5313 27.9611 36 27.96V25ZM27 36.422C24.926 34.902 22.5315 33.8771 20 33.426V27.276C21.9401 27.6668 23.7821 28.4428 25.417 29.558C25.9725 29.9432 26.5014 30.3655 27 30.822C27.4986 30.3655 28.0275 29.9432 28.583 29.558C30.2179 28.4424 32.0598 27.6661 34 27.275V33.426C31.4685 33.8771 29.074 34.902 27 36.422ZM26 23H28V24H26V23ZM26 19H28V20H26V19Z" fill="#1B1B1B"/>
<path d="M26 25.0017H28V26.0017H26V25.0017ZM24 20.0017C24.2652 20.0017 24.5196 19.8964 24.7071 19.7089C24.8947 19.5213 25 19.267 25 19.0017C25.001 18.8715 24.976 18.7423 24.9266 18.6218C24.8771 18.5013 24.8042 18.3917 24.7121 18.2996C24.62 18.2075 24.5105 18.1346 24.39 18.0852C24.2694 18.0358 24.1403 18.0108 24.01 18.0117C23.8794 18.0111 23.7498 18.0362 23.6289 18.0856C23.5079 18.135 23.3978 18.2077 23.305 18.2996C23.1174 18.4853 23.0113 18.7379 23.01 19.0017C23.0087 19.2656 23.1123 19.5192 23.2979 19.7068C23.4836 19.8943 23.7361 20.0004 24 20.0017Z" fill="#1B1B1B"/>
<path d="M30 20C30.5523 20 31 19.5523 31 19C31 18.4477 30.5523 18 30 18C29.4477 18 29 18.4477 29 19C29 19.5523 29.4477 20 30 20Z" fill="#1B1B1B"/>
<path d="M31 23H23C22.2046 22.9992 21.442 22.6829 20.8796 22.1204C20.3171 21.558 20.0008 20.7954 20 20V18C20.0008 17.2046 20.3171 16.442 20.8796 15.8796C21.442 15.3171 22.2046 15.0008 23 15H31C31.7954 15.0008 32.558 15.3171 33.1204 15.8796C33.6829 16.442 33.9992 17.2046 34 18V20C33.9992 20.7954 33.6829 21.558 33.1204 22.1204C32.558 22.6829 31.7954 22.9992 31 23ZM23 17C22.7348 17 22.4804 17.1054 22.2929 17.2929C22.1054 17.4804 22 17.7348 22 18V20C22 20.2652 22.1054 20.5196 22.2929 20.7071C22.4804 20.8946 22.7348 21 23 21H31C31.2652 21 31.5196 20.8946 31.7071 20.7071C31.8946 20.5196 32 20.2652 32 20V18C32 17.7348 31.8946 17.4804 31.7071 17.2929C31.5196 17.1054 31.2652 17 31 17H23Z" fill="#1B1B1B"/>
</svg>
